<?xml version="1.0" encoding="utf-8"?>
<!-- Generator: Adobe Illustrator 16.0.0, SVG Export Plug-In . SVG Version: 6.00 Build 0)  -->
<!DOCTYPE svg PUBLIC "-//W3C//DTD SVG 1.1//EN" "http://www.w3.org/Graphics/SVG/1.1/DTD/svg11.dtd">
<svg version="1.1" id="Layer_1" xmlns="http://www.w3.org/2000/svg" xmlns:xlink="http://www.w3.org/1999/xlink" x="0px" y="0px"
	 width="117.986px" height="21.012px" viewBox="0 0 117.986 21.012" enable-background="new 0 0 117.986 21.012"
	 xml:space="preserve">
<g>
	<path fill="#F0C419" d="M17.176,19.074l-0.498-2.904l-0.318-1.854v-0.002l-0.254-1.481l2.807-2.736l1.728-1.684
		c0.593-0.578,0.408-1.148-0.411-1.269L17.84,6.797L15.452,6.45l0,0l-1.489-0.218l-0.666-1.349c0-0.001,0-0.001-0.001-0.002
		L12.228,2.72L11.16,0.555c-0.367-0.74-0.966-0.74-1.332,0L8.759,2.72L7.692,4.883c0,0.001,0,0.001-0.001,0.002L7.025,6.234
		L5.535,6.451l0,0L3.147,6.797L0.758,7.145c-0.819,0.119-1.004,0.689-0.411,1.269l1.729,1.684l2.806,2.736l-0.254,1.481v0.002
		L4.309,16.17l-0.498,2.904c-0.139,0.813,0.347,1.166,1.079,0.78l2.136-1.123l3.469-1.823l3.469,1.823l2.136,1.123
		C16.83,20.24,17.315,19.889,17.176,19.074z"/>
</g>
<g>
	<path fill="#F0C419" d="M41.176,19.074l-0.498-2.904l-0.318-1.854v-0.002l-0.254-1.481l2.807-2.736l1.728-1.684
		c0.593-0.578,0.408-1.148-0.411-1.269L41.84,6.797L39.452,6.45l0,0l-1.489-0.218l-0.666-1.349c0-0.001,0-0.001-0.001-0.002
		L36.228,2.72L35.16,0.555c-0.367-0.74-0.966-0.74-1.332,0L32.759,2.72l-1.067,2.163c0,0.001,0,0.001-0.001,0.002l-0.666,1.349
		l-1.489,0.218l0,0l-2.389,0.347l-2.389,0.348c-0.819,0.119-1.004,0.689-0.411,1.269l1.729,1.684l2.806,2.736l-0.254,1.481v0.002
		l-0.318,1.854l-0.498,2.904c-0.139,0.813,0.347,1.166,1.079,0.78l2.136-1.123l3.469-1.823l3.469,1.823l2.136,1.123
		C40.83,20.24,41.315,19.889,41.176,19.074z"/>
</g>
<g>
	<path fill="#F0C419" d="M89.176,19.074l-0.497-2.904l-0.318-1.854v-0.002l-0.255-1.481l2.808-2.736l1.729-1.684
		c0.592-0.578,0.407-1.148-0.412-1.269l-2.39-0.347L87.452,6.45c0,0,0,0-0.001,0l-1.488-0.218l-0.666-1.349
		c-0.001-0.001-0.001-0.001-0.002-0.002L84.229,2.72L83.16,0.555c-0.367-0.74-0.967-0.74-1.332,0L80.76,2.72l-1.068,2.163
		c0,0.001,0,0.001,0,0.002l-0.666,1.349l-1.489,0.218l0,0l-2.39,0.347l-2.389,0.348c-0.818,0.119-1.004,0.689-0.41,1.269
		l1.729,1.684l2.806,2.736l-0.254,1.481v0.002l-0.318,1.854l-0.498,2.904c-0.139,0.813,0.348,1.166,1.079,0.78l2.136-1.123
		l3.47-1.823l3.469,1.823l2.135,1.123C88.83,20.24,89.314,19.889,89.176,19.074z"/>
</g>
<g>
	<path fill="#F0C419" d="M113.176,19.074l-0.497-2.904l-0.318-1.854v-0.002l-0.255-1.481l2.808-2.736l1.729-1.684
		c0.592-0.578,0.407-1.148-0.412-1.269l-2.389-0.348l-2.388-0.347c0,0,0,0-0.001,0l-1.488-0.218l-0.666-1.349
		c-0.001-0.001-0.001-0.001-0.002-0.002l-1.066-2.163l-1.067-2.165c-0.367-0.74-0.967-0.74-1.332,0l-1.07,2.167l-1.068,2.163
		c0,0.001,0,0.001,0,0.002l-0.666,1.349l-1.489,0.218l0,0l-2.39,0.347l-2.389,0.348c-0.818,0.119-1.004,0.689-0.41,1.269
		l1.729,1.684l2.806,2.736l-0.254,1.481v0.002l-0.318,1.854l-0.498,2.904c-0.139,0.813,0.348,1.166,1.079,0.78l2.136-1.123
		l3.47-1.823l3.469,1.823l2.135,1.123C112.83,20.24,113.314,19.889,113.176,19.074z"/>
</g>
<g>
	<path fill="#F0C419" d="M65.176,19.074l-0.497-2.904l-0.318-1.854v-0.002l-0.255-1.481l2.808-2.736l1.729-1.684
		c0.592-0.578,0.407-1.148-0.412-1.269l-2.39-0.347L63.452,6.45c0,0,0,0-0.001,0l-1.488-0.218l-0.666-1.349
		c-0.001-0.001-0.001-0.001-0.002-0.002L60.229,2.72L59.16,0.555c-0.367-0.74-0.967-0.74-1.332,0L56.76,2.72l-1.068,2.163
		c0,0.001,0,0.001,0,0.002l-0.666,1.349l-1.489,0.218l0,0l-2.39,0.347l-2.388,0.348c-0.819,0.119-1.004,0.689-0.411,1.269
		l1.729,1.684l2.806,2.736l-0.254,1.481v0.002l-0.318,1.854l-0.498,2.904c-0.139,0.813,0.348,1.166,1.079,0.78l2.136-1.123
		l3.47-1.823l3.469,1.823l2.135,1.123C64.83,20.24,65.314,19.889,65.176,19.074z"/>
</g>
</svg>
